<svg xmlns="http://www.w3.org/2000/svg" width="512" height="512" viewBox="0 0 512 512">
  <circle cx="256" cy="256" r="256" fill="#3b82f6"/>
  <path d="M176 176a16 16 0 1 0-16-16 16 16 0 0 0 16 16zm0 32a16 16 0 0 0-16 16v96a16 16 0 0 0 32 0v-96a16 16 0 0 0-16-16zm80-32a16 16 0 1 0-16-16 16 16 0 0 0 16 16zm0 32a16 16 0 0 0-16 16v96a16 16 0 0 0 32 0v-96a16 16 0 0 0-16-16zm80-32a16 16 0 1 0-16-16 16 16 0 0 0 16 16zm0 32a16 16 0 0 0-16 16v96a16 16 0 0 0 32 0v-96a16 16 0 0 0-16-16z" fill="white" stroke="white" stroke-width="4"/>
</svg>
